<svg xmlns="http://www.w3.org/2000/svg" viewBox="0 0 520 136" width="520" height="136">
  <rect x="8" y="8" width="504" height="120" fill="#2FE66A"></rect>
  <rect x="0" y="0" width="504" height="120" fill="#0a0a0a"></rect>
  <g fill="#F3F0E8"><path transform="translate(28.000 92.000) scale(0.072000 -0.072000)" d="M90 0 10 550H130L170 250Q175 217 178.5 175.0Q182 133 184 106Q187 133 192.5 174.5Q198 216 203 250L249 550H353L397 250Q402 216 407.5 174.0Q413 132 416 105Q418 133 422.5 175.5Q427 218 431 250L473 550H590L509 0H359L318 310Q314 338 309.0 377.0Q304 416 301 442Q297 416 292.0 377.0Q287 338 283 310L241 0Z"/></g>
  <g fill="#2FE66A"><path transform="translate(72.000 92.000) scale(0.072000 -0.072000)" d="M225 0V590H40V730H560V590H375V0Z"/><path transform="translate(112.200 92.000) scale(0.072000 -0.072000)" d="M65 0V730H300Q378 730 435.0 703.0Q492 676 523.5 626.0Q555 576 555 508Q555 437 520.5 381.0Q486 325 427 300L565 0H402L284 276H214V0ZM214 406H300Q350 406 377.5 431.0Q405 456 405 501Q405 548 377.5 574.0Q350 600 300 600H214Z"/><path transform="translate(152.400 92.000) scale(0.072000 -0.072000)" d="M25 0 204 730H394L575 0H422L387 165H213L178 0ZM238 285H361L326 461Q319 499 311.5 536.5Q304 574 300 595Q296 574 289.5 537.0Q283 500 275 462Z"/><path transform="translate(192.600 92.000) scale(0.072000 -0.072000)" d="M305 -10Q231 -10 176.0 17.5Q121 45 90.5 94.5Q60 144 60 210V520Q60 587 90.5 636.0Q121 685 176.0 712.5Q231 740 305 740Q378 740 432.5 712.5Q487 685 517.5 636.0Q548 587 548 520H398Q398 564 373.5 587.0Q349 610 304 610Q259 610 234.5 587.0Q210 564 210 520V210Q210 167 234.5 143.5Q259 120 304 120Q349 120 373.5 143.5Q398 167 398 210H548Q548 144 517.5 94.5Q487 45 432.5 17.5Q378 -10 305 -10Z"/><path transform="translate(232.800 92.000) scale(0.072000 -0.072000)" d="M65 0V730H215V447H286L406 730H569L419 381L575 0H410L286 309H215V0Z"/><path transform="translate(273.000 92.000) scale(0.072000 -0.072000)" d="M80 0V730H530V602H227V438H495V310H227V128H530V0Z"/><path transform="translate(313.200 92.000) scale(0.072000 -0.072000)" d="M65 0V730H300Q378 730 435.0 703.0Q492 676 523.5 626.0Q555 576 555 508Q555 437 520.5 381.0Q486 325 427 300L565 0H402L284 276H214V0ZM214 406H300Q350 406 377.5 431.0Q405 456 405 501Q405 548 377.5 574.0Q350 600 300 600H214Z"/></g>
</svg>
